<mxfile host="app.diagrams.net" modified="2024-07-30T14:23:01.967Z" agent="Mozilla/5.0 (Windows NT 10.0; Win64; x64) AppleWebKit/537.36 (KHTML, like Gecko) Chrome/126.0.0.0 Safari/537.36" etag="hxPV6vxzEtSVvRmdvHSQ" version="24.7.1" type="github">
  <diagram name="Page-1" id="KfopDUn52WovluxodN_v">
    <mxGraphModel dx="3342" dy="840" grid="1" gridSize="10" guides="1" tooltips="1" connect="1" arrows="1" fold="1" page="1" pageScale="1" pageWidth="850" pageHeight="1100" math="0" shadow="0">
      <root>
        <mxCell id="0" />
        <mxCell id="1" parent="0" />
        <mxCell id="0RuG0_nQVEGUd9mbJf9A-1" value="&lt;b&gt;Cache&lt;/b&gt;" style="rounded=0;whiteSpace=wrap;html=1;" vertex="1" parent="1">
          <mxGeometry x="280" y="210" width="90" height="30" as="geometry" />
        </mxCell>
        <mxCell id="0RuG0_nQVEGUd9mbJf9A-2" value="&lt;b&gt;Read-only Actions&lt;/b&gt;&lt;div&gt;&lt;b&gt;&lt;br&gt;&lt;/b&gt;&lt;div&gt;e.g. vector search, run SQL queries, web search&lt;/div&gt;&lt;/div&gt;" style="rounded=1;whiteSpace=wrap;html=1;" vertex="1" parent="1">
          <mxGeometry x="230" y="280" width="190" height="70" as="geometry" />
        </mxCell>
        <mxCell id="0RuG0_nQVEGUd9mbJf9A-3" value="&lt;b&gt;Context Construction&lt;/b&gt;&lt;div&gt;&lt;b&gt;&lt;br&gt;&lt;/b&gt;&lt;/div&gt;&lt;div&gt;e.g. RAG, agent,&amp;nbsp;&lt;/div&gt;&lt;div&gt;query rewriting&lt;/div&gt;" style="rounded=0;whiteSpace=wrap;html=1;" vertex="1" parent="1">
          <mxGeometry x="230" y="100" width="190" height="70" as="geometry" />
        </mxCell>
        <mxCell id="0RuG0_nQVEGUd9mbJf9A-5" value="" style="endArrow=classic;html=1;rounded=0;exitX=0.5;exitY=0;exitDx=0;exitDy=0;entryX=0.5;entryY=1;entryDx=0;entryDy=0;" edge="1" parent="1" source="0RuG0_nQVEGUd9mbJf9A-1" target="0RuG0_nQVEGUd9mbJf9A-3">
          <mxGeometry width="50" height="50" relative="1" as="geometry">
            <mxPoint x="370" y="310" as="sourcePoint" />
            <mxPoint x="420" y="260" as="targetPoint" />
          </mxGeometry>
        </mxCell>
        <mxCell id="0RuG0_nQVEGUd9mbJf9A-7" value="" style="endArrow=classic;html=1;rounded=0;exitX=0.5;exitY=0;exitDx=0;exitDy=0;entryX=0.5;entryY=1;entryDx=0;entryDy=0;" edge="1" parent="1" source="0RuG0_nQVEGUd9mbJf9A-2" target="0RuG0_nQVEGUd9mbJf9A-1">
          <mxGeometry width="50" height="50" relative="1" as="geometry">
            <mxPoint x="370" y="310" as="sourcePoint" />
            <mxPoint x="420" y="260" as="targetPoint" />
          </mxGeometry>
        </mxCell>
        <mxCell id="0RuG0_nQVEGUd9mbJf9A-8" value="&lt;b&gt;Databases&lt;/b&gt;&lt;div&gt;&lt;b&gt;&lt;br&gt;&lt;/b&gt;&lt;/div&gt;&lt;div&gt;e.g. documents, tables, chat history, vectorDB&lt;/div&gt;" style="shape=cylinder3;whiteSpace=wrap;html=1;boundedLbl=1;backgroundOutline=1;size=15;" vertex="1" parent="1">
          <mxGeometry x="500" y="260" width="140" height="110" as="geometry" />
        </mxCell>
        <mxCell id="0RuG0_nQVEGUd9mbJf9A-9" value="" style="endArrow=classic;html=1;rounded=0;exitX=0.5;exitY=0;exitDx=0;exitDy=0;exitPerimeter=0;entryX=1;entryY=0.5;entryDx=0;entryDy=0;" edge="1" parent="1" source="0RuG0_nQVEGUd9mbJf9A-8" target="0RuG0_nQVEGUd9mbJf9A-1">
          <mxGeometry width="50" height="50" relative="1" as="geometry">
            <mxPoint x="370" y="310" as="sourcePoint" />
            <mxPoint x="420" y="260" as="targetPoint" />
            <Array as="points">
              <mxPoint x="570" y="225" />
            </Array>
          </mxGeometry>
        </mxCell>
        <mxCell id="0RuG0_nQVEGUd9mbJf9A-10" value="&lt;b&gt;Input Guardrails&lt;/b&gt;&lt;div&gt;e.g. PIL redaction&lt;/div&gt;" style="rounded=0;whiteSpace=wrap;html=1;" vertex="1" parent="1">
          <mxGeometry x="475" y="110" width="190" height="50" as="geometry" />
        </mxCell>
        <mxCell id="0RuG0_nQVEGUd9mbJf9A-11" value="" style="endArrow=classic;html=1;rounded=0;exitX=1;exitY=0.5;exitDx=0;exitDy=0;entryX=0;entryY=0.5;entryDx=0;entryDy=0;" edge="1" parent="1" source="0RuG0_nQVEGUd9mbJf9A-3" target="0RuG0_nQVEGUd9mbJf9A-10">
          <mxGeometry width="50" height="50" relative="1" as="geometry">
            <mxPoint x="520" y="310" as="sourcePoint" />
            <mxPoint x="570" y="260" as="targetPoint" />
          </mxGeometry>
        </mxCell>
        <mxCell id="0RuG0_nQVEGUd9mbJf9A-12" value="&lt;b&gt;Routing&lt;/b&gt;" style="rounded=0;whiteSpace=wrap;html=1;" vertex="1" parent="1">
          <mxGeometry x="740" y="295" width="190" height="30" as="geometry" />
        </mxCell>
        <mxCell id="0RuG0_nQVEGUd9mbJf9A-13" value="&lt;b&gt;Generation&lt;/b&gt;" style="rounded=0;whiteSpace=wrap;html=1;" vertex="1" parent="1">
          <mxGeometry x="740" y="335" width="190" height="30" as="geometry" />
        </mxCell>
        <mxCell id="0RuG0_nQVEGUd9mbJf9A-14" value="&lt;b&gt;Scoring&lt;/b&gt;" style="rounded=0;whiteSpace=wrap;html=1;" vertex="1" parent="1">
          <mxGeometry x="740" y="375" width="190" height="30" as="geometry" />
        </mxCell>
        <mxCell id="0RuG0_nQVEGUd9mbJf9A-16" value="&lt;b&gt;Model Gateway&lt;/b&gt;&lt;div&gt;&lt;b&gt;&lt;br&gt;&lt;/b&gt;&lt;/div&gt;&lt;div&gt;Model catalog, access token management, ...&lt;/div&gt;" style="text;html=1;align=center;verticalAlign=middle;whiteSpace=wrap;rounded=0;" vertex="1" parent="1">
          <mxGeometry x="740" y="235" width="190" height="30" as="geometry" />
        </mxCell>
        <mxCell id="0RuG0_nQVEGUd9mbJf9A-17" value="" style="rounded=0;whiteSpace=wrap;html=1;fillColor=none;" vertex="1" parent="1">
          <mxGeometry x="720" y="205" width="230" height="220" as="geometry" />
        </mxCell>
        <mxCell id="0RuG0_nQVEGUd9mbJf9A-18" value="" style="endArrow=classic;html=1;rounded=0;exitX=1;exitY=0.5;exitDx=0;exitDy=0;entryX=0.5;entryY=0;entryDx=0;entryDy=0;" edge="1" parent="1" source="0RuG0_nQVEGUd9mbJf9A-10" target="0RuG0_nQVEGUd9mbJf9A-17">
          <mxGeometry width="50" height="50" relative="1" as="geometry">
            <mxPoint x="930" y="320" as="sourcePoint" />
            <mxPoint x="980" y="270" as="targetPoint" />
            <Array as="points">
              <mxPoint x="835" y="135" />
            </Array>
          </mxGeometry>
        </mxCell>
        <mxCell id="0RuG0_nQVEGUd9mbJf9A-19" value="&lt;b&gt;Output Guardrails&lt;/b&gt;&lt;div&gt;-&lt;b&gt; &lt;/b&gt;Safety/verification&lt;/div&gt;&lt;div&gt;- Structured outputs&lt;/div&gt;" style="rounded=0;whiteSpace=wrap;html=1;" vertex="1" parent="1">
          <mxGeometry x="495" y="480" width="150" height="70" as="geometry" />
        </mxCell>
        <mxCell id="0RuG0_nQVEGUd9mbJf9A-20" value="" style="endArrow=classic;html=1;rounded=0;entryX=1;entryY=0.5;entryDx=0;entryDy=0;exitX=0.5;exitY=1;exitDx=0;exitDy=0;" edge="1" parent="1" source="0RuG0_nQVEGUd9mbJf9A-17" target="0RuG0_nQVEGUd9mbJf9A-19">
          <mxGeometry width="50" height="50" relative="1" as="geometry">
            <mxPoint x="850" y="600" as="sourcePoint" />
            <mxPoint x="780" y="310" as="targetPoint" />
            <Array as="points">
              <mxPoint x="835" y="515" />
            </Array>
          </mxGeometry>
        </mxCell>
        <mxCell id="0RuG0_nQVEGUd9mbJf9A-21" value="&lt;b&gt;Write Actions&lt;/b&gt;&lt;div&gt;&lt;b&gt;&lt;br&gt;&lt;/b&gt;&lt;div&gt;e.g. update orders,&amp;nbsp;&lt;/div&gt;&lt;div&gt;send emails&lt;/div&gt;&lt;/div&gt;" style="rounded=1;whiteSpace=wrap;html=1;" vertex="1" parent="1">
          <mxGeometry x="235" y="380" width="190" height="70" as="geometry" />
        </mxCell>
        <mxCell id="0RuG0_nQVEGUd9mbJf9A-22" value="" style="endArrow=classic;html=1;rounded=0;exitX=0;exitY=0.5;exitDx=0;exitDy=0;entryX=0.5;entryY=1;entryDx=0;entryDy=0;" edge="1" parent="1" source="0RuG0_nQVEGUd9mbJf9A-19" target="0RuG0_nQVEGUd9mbJf9A-21">
          <mxGeometry width="50" height="50" relative="1" as="geometry">
            <mxPoint x="540" y="550" as="sourcePoint" />
            <mxPoint x="590" y="500" as="targetPoint" />
            <Array as="points">
              <mxPoint x="330" y="515" />
            </Array>
          </mxGeometry>
        </mxCell>
        <mxCell id="0RuG0_nQVEGUd9mbJf9A-23" value="&lt;b&gt;Cache&lt;/b&gt;" style="rounded=0;whiteSpace=wrap;html=1;" vertex="1" parent="1">
          <mxGeometry y="300" width="120" height="55" as="geometry" />
        </mxCell>
        <mxCell id="0RuG0_nQVEGUd9mbJf9A-26" value="&lt;b&gt;Final Response&lt;/b&gt;" style="endArrow=classic;html=1;rounded=0;entryX=0.5;entryY=1;entryDx=0;entryDy=0;" edge="1" parent="1" target="0RuG0_nQVEGUd9mbJf9A-23">
          <mxGeometry x="-0.0118" y="25" width="50" height="50" relative="1" as="geometry">
            <mxPoint x="330" y="515" as="sourcePoint" />
            <mxPoint x="310" y="595" as="targetPoint" />
            <Array as="points">
              <mxPoint x="60" y="515" />
            </Array>
            <mxPoint as="offset" />
          </mxGeometry>
        </mxCell>
        <mxCell id="0RuG0_nQVEGUd9mbJf9A-27" value="" style="endArrow=classic;html=1;rounded=0;entryX=0;entryY=0.5;entryDx=0;entryDy=0;exitX=0.5;exitY=0;exitDx=0;exitDy=0;" edge="1" parent="1" source="0RuG0_nQVEGUd9mbJf9A-23" target="0RuG0_nQVEGUd9mbJf9A-3">
          <mxGeometry width="50" height="50" relative="1" as="geometry">
            <mxPoint x="310" y="225" as="sourcePoint" />
            <mxPoint x="40" y="70" as="targetPoint" />
            <Array as="points">
              <mxPoint x="60" y="135" />
            </Array>
          </mxGeometry>
        </mxCell>
        <mxCell id="0RuG0_nQVEGUd9mbJf9A-28" value="" style="endArrow=none;html=1;rounded=0;" edge="1" parent="1">
          <mxGeometry width="50" height="50" relative="1" as="geometry">
            <mxPoint x="180" y="515" as="sourcePoint" />
            <mxPoint x="180" y="135" as="targetPoint" />
          </mxGeometry>
        </mxCell>
        <mxCell id="0RuG0_nQVEGUd9mbJf9A-29" value="" style="shape=image;verticalLabelPosition=bottom;labelBackgroundColor=default;verticalAlign=top;aspect=fixed;imageAspect=0;image=data:image/png,iVBORw0KGgoAAAANSUhEUgAAAOEAAADhCAYAAAA+s9J6AAAAAXNSR0IArs4c6QAAIABJREFUeF7tfQm0NFV17hmqqvve//44wQsGCIhoZFAmjSg4MYquFxAnMCsBfAoOuCImKma9B+h6L4BGMInRHxMFXSuiiQL6IkEBfSoqGAdU1ERFUYhAxIn//vd21/jqK85u9q2/uuv0WNV9q9a6697bXXXqnH32PmefPXxbiuaqCwVaQggphNhFCPEwz/O07/vrQoglIYQSQuxuOqqFEPhpCyFWzGeeEGLN/PhCiMh8fp/5e4cQAu3HQojfCiF+ZT5P6jL4zdwPTHpzzY4CEJxd2u32QZ1O53FKqaOVUo+NoujRWutHR1GUJEkilFIijuNESimyDx688BtCRL9J0DCH9ANh5f/T3wJt4SeOYz7n92it74mi6EftdvuznU7nR0KI7wshfiOE6MyOLJv7TY0QTnf+9xRCHCiEOE4I8SQhxLH0OimlfEi+hNBaiygiuRLC8zzh+9jUxr8g1BBAtO84jgjDMGsf/+PHCDsJOr3wBqXUd+I4vkEI8V0hxN3j96RpoYgCjRBOli/2MYL2NNd1zwSDQ9C01pnAgdkhAPmr1WqJbrebfYy/4zgWQRBMpGdFwjxIwCGk1Ff0HwKMHdoI7xVCiFuFEDcKIX48kQ42jWSqS3ONTgGcyY4QQjxXCPESIQR2PsmZ3KiWO+10YGoIG35I+EgQqTv07Ojde/BJ13UzoabdFotBu90W6+vrmZDhhy8OdB+9n+2UWRv4PAiCu5RS/xzH8aeFEF8RQmwft5+b9flGCIefeZzrnr28vPyKtbW1U/C453kSTA5mxUWCRczMhQCf4V5SRbmgcZWU747Dd3HjE6SCon9btmwRq6urOzWJ79BPUlGpz7gR36E/nc5Dx0QaK+2UWutroyj6ByHEZ5vz5HAz1gihHb22CiGOFEKcJYQ42TB1tuNhByGhI4aFgJEQ8V2EvwoCh4tUPi68JAAkPHZdLL6LBDuvgqJf+I4WA34epZZI0Oge9AvjRb/y6nLuTHutEOJ9qWp+c7NDls9eI4SDabR/apB4RWrWP9cImCxiQHxHDJ0XSLNT9HYZ+j6vppLA4XMwPTfalE9j+R1coPICyXdj/E27NVdLqU98UWEW10xFzS0kiRHUyzzPe7/v+98r7+XmvKMRwp3nva21fkkURa92HOepYRha0YgzJAkUmJiELi9U+fMWPcPVwEmcCXkb+R2WdkPsbkXvQp9w0XmRLxD9dvgBYnSL1npbFEUfbdTVjVSyYrDNsD612+194jg+y/f98x48BmU+utKh9xMevivgb87QRcYafAYVFsaSaV5LS0uZJZbv2HgfF1BSkzF+MiDhN7lMiDa2bhS2KGUEjaLoYqOu3jnNsc5L240QCrG/1vrPoyg6E64EnI34ec1mImFphNECzEnqp1FfC89P+I4YGEJBgsd3R8dxSJ2z6cLAe+gslySJ5Dsef3fRokOf8R2QxmorgP06BjeplPLKOI7/KrUsb2pVdTML4f5SyncppY6LoiijAzFdXpgGcXjeyc4FjD/Hz3x05jK7T5I34rTb7fs6nc7N7Xb7jk6nc48QAubMX5iQM4SdwauPMDU4F/GDsDVYbZdNiBtC3x4uhNi11WqtdLvdR7darf263e5RUsrdueEIw2Zuh2xHxEXWXvofu2Be8IrGnqcVNy7l76fIIK31jVEUvX6zCuNmFMJDHMd5O5zqdN6j3WEcRzmYFe2Qr48YNr/DKKUSqIKO49wahuE3hBC3CyG+1Wq17u92uz83Ajf27lfSwJZUHfxdCKkQ4mAhxBOFEIdJKZ9qdvLMAMV9hxgPuVb4udWmo/nzJtwk0Bx4tM6DAUQJggDelFqgb7Npd1Hu2TRC2Gq1Huv7/iVCiFOUUpnaya+8X4ysfUWm+/zkl+wQiDb5YRiGN2mtPx9F0beEEDgL1TE2E7vp3lrrgx3HeXa32z1WKfU4fn7s5/IYJBBEH+7SoXbIeMXO3zg3XmOE8Y5FEbRB49gMQgjGukBr/WZSO0EQbqDIr+zDrvRoj1Qr7HzYRWB8UEp9LgzDbwshkM0wr9ejHcc5SAjxnDAMzyMfaT+1Oz/IvArK1V1uRcbf0CJYbGvi+z4MOG+r6YI1sflcdCE8XUp5BQwSoFg/Xx7FSvLfBSt0P6JncZVRFF2TJMknUmb9vBDipxObofo1hJ3yWVLKk9IFJosYKrtIsLiKS+fgooAEHmQeBAHU1DOFEB8se8+8fr+oQnio1voTURTtVTYx/MzGDSTklKfzTN4ZDetlGIY4w7xfCHHdJo0M2aq1fl4cx69IkuQYhO/xzI/8osetv9yKPGiOGP3viuP4JCHEN8vmdN6+XzQhdFut1iW+759rshc2pAf1m5yi2EjcW6A64bxyt9b6f0ZR9CkhxC/nbcKn2N9HCiGev7y8/H/CMNwL9OehbXwxwxkTAkoqqE2fjNsoUUq9KwiCN8OAa/PcPNyzMELoOM5xYRh+2nXdXjC1jbMdk8TPJmAWMA/5w5BEa/xpl6VZEghQRtJrcw2mwBOEEK804X4yf8YeNhKInyuN5oLF8IQ0nhe5jnN/LYIQIrj6r9Nz2Jlc3cHEFeXu5WeMMwTPXNBaw5Vwn+M4bw6CANa6JlVneHZfcV33lCAILoF/ktKnhjhv75QCRl1YWVlJVldXrxRC/Om8z828C+FhQoivUaQLX3HzcY825w6zKyZwIyRJAn/VQqy0w8vO5J8wmsrbHcc5GP5ZSpvKh88NejMWSbiMaHGlXdF13cODIJjbs+I8C+GFjuOcj4gPgmuAUSCfw2fLTsaJfqPrum8KgmBTOYttaTSJ+1zXPUQpdUm32wXkRyn/QVOhCCYcEyjLA8JIZ0tk/htXxoWT6OOs2yglwqw7ZPG+XR3HwQ51CK2IiMDYsQOAYg9eZPG0zMdLtNa3RFH0ms0WqWFB66ndAmFMkuS9YRg+tUwYeRoWHRn4MQJ/4ycMQyyex5sQv6n1fdINz5sQHuW67heCIMj6XQRWlIdyGECwzNLpOM5pYRh+adKEbdqzpgCSpa9KXT2F7iQejcRDAdE6DG803ywtC/P6jBRca27mdG6EEAaSOI4vAmQfD7TGJJBvqmiS8v49AxmIOTxDCPEha1ZpbpwqBbTWfxJFEQwtPZ7kgfQ055aLLATxLWlgFMIUa3/NgxAi7OwfEfMJavK0Gq5+0spYpK7gO1jmut0uVM+3hmF46bxb1GrPWaN1EJbuc9M5vhArLcXtjnHcuFoI8Ud1D3uruxBudRznC0qpQ7jRhZu4yw7uFNNpsDOBiNb4+UYTkFk+dYAQ4qOtVusgsoaSljOC4Q3nxGfWedGtsxDuJ6X8AcV9FgVV5z8rMmE/eHRIXmUyuWfJSM27xqcAHP6Xj+OCMkIL9fTxQgggjNfuqqsQPkNK+XkIIM4CFL1CcAtFLok8ZY0zF1ZUBP8iT6+55pMCe6TpVQAdPm6UYAwM2RxRamuwqZ0Qaq1PlVJ+GA7dPPbmyspK5orgVjEQuU9Y0zlCiPfMJ981vc5TQCn1mjiO3z1KWCKzsEIQT4OqWycK100ITzerXs8CatKENoAuEVHz0AlGIO/yfR++on+vE6GbvkyEAge02+3ru91uFiBuA69Bb2W7KOBEzux0OrVJjaqTEL7WcZx3Q9UsIi4JHDluyRqai87fZoKG65i1PhEubBrJsHQu1Vq/2gb1gNOL4fwgLvh1Qoi/qwM96yKECDe6oIggXMgggJzwLGoCroezoyj6+zoQtenDTCjwSinl5WS4K9KOSmAroZq+1fzMpMP9XlIHIewrgEWdJvgIfGfy1ZKVlZWDVldXNzVsXqVcVN3LD3Qc5zsEW0KZMxyIuaRrtYg5rVoIX5sifr27bA6x42GlI2xPyhM0MZ84/zVpRmVEXNzv4eD/jJTyCCqwShqTZd4iEoVfF8dxZapplULYM8LY8gepF1jxpJQfD8MQlq6FybC2pUNz304UcB3HgUX9hRT2Zhm8nzVkMmgqw7GpRAg9z3up7/tX5avVFjFXvtYf8ClT9aMWunwjDLWjwPnpQn0hnRNtBJGMgK1WC5hBp5laGTMdWBVCeJQQAqFo0jahk0XGNAaYmbLH/L3MdV1U0XofZdqUjYBsDGRfqCIDY9ZCuJ/W+gc4SFvq6z0aYqXqdrunCiH+qYywzfebngIv9jzvo77vW/E350XXdVEDZKYhbladnNCUorT0A7yctE3lIxb7BwMMIAabq6GADQWOMfAkpTzO+ZABST1sVga/0g7ajNbinrbjOF+J4/gQqKD9Cq+w6kG9opOIvk6SpBFACyI3t+xEgaOllDfijMgLnhL/lRyHkH3xtFmkQc1KCJHX9QJjiSqsRMszIljEDPw4jQA20jUOBY52XfdG2zNi7kXgW1hcp3pNXQgdx3mTUupi6OcDioBktSF4gUxjNm4EcKrTv2kaP0YphYwalH7KNDHsggxbth8hsAmgaCyqeE3tmqoQOo5zVBiGX8DgbfIBaZTmcNwYYaY27Zuy4RcrpT4KeJQhRw9BRFLwzUM+Z337sB2ybjgNjt1NKXUf9HGbfEDcAzNxHMc4A54thGjiQIehdnOvDQVe4TjO+4rS5Po9zJAZfmdaKG7TFEKAsaIAZe8dRfmAvCSzOSgjlhTO+OZqKDBxCiilzk93w1H4C4aaQyfeoTK8xzFeeOHS0tL56+vrWcVXZD7wuhBFEe94V6vV+ni3233RGO9tHm0oUEoBrfXHoih6oW0+ImXmK6Xelm4UEwcYnsZOeJhS6mt53btfPiADdr3F6N5NLGgpGzU3jEkBF1FbQogjytrJlT3H+fDJQgiUOZ/YNWkhXJFSPpCP3YOgcXxQ9J4LJQ6BQoiZOUcnRr2moXmmwFYp5W/JYspjlPNW0xyM5sR5daJC6LruFXEcnwH1k6yhRf4/PkgEZLuue5Dv+00+4Dyz9Hz2/QAp5e2IYwbPEqgYucqWl5ez9DnuzoAK22q1rlhbW3v5pIY8MSF0HOf4OI6vhxrKUbHIL0M7H8sFzM6JcRyf1VhCJzWdTTvDUkBr/cooit7HnzMFSTNbBoPX57Ar2A2fizzGYd9XdP+khBD5XF0qecUrtOZfWoAJ8+pJDKRpo6HAqBRQSr1HSvlq4s08dg20ObNhZLsiLhNM0ppEPuukhBCw8ufSCkLVbgmynhCzecye1vquKIoQrd6AMo3KPc1zk6IAwKN+gKI0JIhk1cfvok0FRWSjKHpXmpTwhnE7MQkhPExrnRXqpMIsvFNFmRImLekgIURzDhx3BpvnJ0WBA5RStxPaNw/uJlcGV03NSydiLR1bCJeXl3+2tra2F++o2a4zHRqCCUMMoAyxpZutHsC8lWF6TGrWmnYWiwIGYLjHlzzhl6p7YcQQUKqB4jjOXd1u9/fGocRYQqi1hiX0A47jZNVySRAHwQpIKT+TJMkJ43S6ebahwLQooLX+dBRFSBzopdyBr+lMSBsMS8mDdf/MIAhGBhMeRwihR6/ZRt2wZEkUg/zPaRGxabehwJgU+F0Uj7XBP6L3mISD5VHtG+MI4UUmzcN6zK7rnh0EwQZzsPXDzY0NBWZHgVeaQO/SN7LQN8jDX5Q+UHDDqEK4H6xJVJxj0IuZXn27EOKJo3SyeaahQAUU+A6CSAa526hPpqIwrKWPE0LcMWxfRxXCa6SUJ/Og7BJBRGRaYw0ddnaa+6ukAAqVYuMolREGFDVSJn7pCwqocIjWGgGsvXLGZZRK4/IuTDPrR0kfKWu6+b6hwDQpgPooVlkTBEi2ZcuWw3bs2IG0J+traCEEcI4Q4hiCHLfADp14wKv16JobGwqMR4EtBnFtoJwgxnRtDTbK7IJ8HDfMa4cVwgNc170doDk2cIXoiHFjjGy+HWYwzb0NBaZAAZRruLKsXQ5O5nneUAkJwwphtguyHMCyvt0lhBjLkVn2gub7hgIzoMDPENJW9J4iEGsp5Q0GptOqa8MIYXZQzbbAtJggN8pw53wugwKQ91+y6klzU0OB+lLgSKXUF5EnS3xPGLkUW5oLaUs8zzvQ9/3v2wzJWgg9z7vC9/0zODQFQtAgdPSbRZgjafcW3/cBntpcDQXmngJa6y9HUZTxM200RTGlJB9a6yuiKLLKObQSwna7vU+n0/kxRRFQdgTPDcTKgARIhk51uBACYE/N1VBgEShwiOM436A6KsTvXAvMle5DlafHCCF+WjZ4KyH0PO+iMAzPw07HwXGMk3JDCWt8D6DVIAiy+LvmaiiwKBQwcc89y2c+ppTvkubvi+M4fkvZ+G2EsG+MKIeuAA4HRRfEcQxouKF8JWUdbb5vKFA1BVzXPTQIgq9TpBg3yuT/Nn1N4jgujSm1EcLTtdZXQtcl7I28RSiHGXNbkiRTwWesehKa9zcUwBFLKZUVNqKdDyopUvawEcE+gowiUk1d1z2jLMPCRgi/QtBwlFOFsyA/DxIcgNkZkaY0EeyNZsobCtSQAjhmfRr9IsQIyAI/G/IKUHEc31oGrVgmhPtrrb+LwyheymEKyVdICY74Po7je4UQj64h4ZouNRSYGAU8z7vH9/3dSSPkcIkEj0hHNbMjwr3X110xUAiVUpfGcXzuoN5zGHsp5elRFH1oYqNtGmooUEMKaK3B51faRI1BULXWlwVB0BeLZpAQ9irrDqIDOx8ueowoUJuPaLfbzw/DcH8hxGOklKuu6/5wbW3tc0KIzwshflJDnplWlx7TbrefFUXRs5MkebyUchcp5Y/DMPx+HMefEkLgGLOoaOpWMaWM8ANlo68QtlqtE7vdLog5cLdkOyF2zT+b1oxX3O457Xb7bzqdzk60ILXDoHOhKiwgHH9UcX+n+fr9pJSXpzDyRxOmbB5d3ahniVLqdXEcLyqW0DtbrdYbut3uQFqzEM8T00X8+qKb+wqYlPLaJElOKptNOieaMJ1FQ0/DbncHwfrnXTKwiOVzKg3UAdK2Fi51K53rC8MwvIDmPG8l5/8zQwV2gccuoJaAc953y+SDvtdafyKKopOHEUKAmq4TgFPZi6SUdyVJslCB2q7rHh4Ewb9BE8hX70GJt9XV1YwspAnkC94kSXKNEOKUMtrNy/ee510bBMFJqKiMtB3C5SSHNcZBiNW0MMFIAcFcX1+HIB62gL7jvoHdNK9ktDEwn4U+w8KdUGt9YhRF19kcPPEyG1/IvDCb6eduKSJzVuCUVvectSu7jUp8F0XSGysZdkOrpNA608fzvLf6vn9+vo85NPXsawKAhtWchNH4kSGIUyu0WRH9rNKcqG+O45wYhuFOKmk/dRSr+MlFzFUwWBD3vwkh7q+IEBN/reM4t4VheDBHY4YDFoKIhYmcsXm4dBLKXIfmPZPkSCnlzZTETQH7PKm7qPY70QpRVCSMS0tLt62vry9SIMeuQoj/GmQ3Ab3Ime953tW+778wz7BFQriilHoAhV1sdkJk2idJMlQm8cSlZrINoj755/MqaH5B4udD/jcFNFCcLZy1SZKU1sGb7BAm15rW+qtRFD2laLycP7hajrFTRElB7ino+8XJ9bDylm5I69kfO6gXZR6EIiE8wXXd67GC2TgjtdanRVH0kcpJMaEOLC0tfXJ9ff2/DwIwHuFVOA/NY0YJ+v31Eca74ZGcsH7SxuA37jtn9bzneaf6vn9VEb9wH7oJakEs6U7VnIqE8DIhxOsxCL6K9QnLQaOLVNxzxXGc7VA3J3ydlx4hL5lwm1NvzvO883zfB57mWFfBjrmLwW4Zq92aPAzNcTuEDNoCaQEYM0WT0XfY2FzX3clxXySEP5NSZqn8pPcPCFAdCeKtJsQr6saRqWpxM/f9jSuQxjr2LSHEITUed7+uod9PGrffBUIIOn953HZr9PzVrVbrBdxniDGT/5QspIavdoJ8yQvhvkqpH1Eaf1mqhpQStSgWCcTp+Y7j/AsJns2ZuIwRGPy/Kru3ht/D6Db2VSCEzxdCXDd2w/VpoGclJdgL2sR4F5k8wW/6Y/ouL4Rna623werXz/yeM1Agc/jO+tBivJ54nnea7/sfhrUPKkRRqbdR3mB8RPMohMjXKQvyLyVJgRCeJoRYGDtCu93eu9Pp3JlftLEDQgXlRj5ol/lyEBsI7HneB5Mk+RMwYL5UMCidS9+HqX7sCSqdwdnegBX6X+iVfVwOo/QIO0ojhA/x0POEEP86CiFr/Exvwcpb1qnPzMIMCMUz++2EWUP5sCSOJMWAni4Ow7A0db/GRCvq2mGu634dC5AFqLH10Fqt1o3dbnfu3Diu694UBMHR1gPtc2PBTriIyAsXOY4DA1y2gXE/KhdKaJLQjNbX13uLMt/J9k7PeHeSMxaNmTSMbEvNQbrBAXlCGIaLlrzrpJV1/KJQtVEZ0TDg2UKIeaxGhX5vG3XsvZVeyp7DXkqgBiYTqfU+br8m+bzjOMeHYZgl++KivEKuQeJvgstPAYX3EUIg7O0hfR+hanEcX0fRDRxRjVYy/CYhXV5e3mNtbe3nkxxIHdpSSr03SZJXgQ4UgoWVjWsHHFkAfe6HuMUKS87r2XlvpdSdXCsoCt8jRiOzPNGjSC0DfeM4fk0d5nrCfUAy+89pzPSb04tvcGkQxPOiKMpUcr4TXqq1PpcYjpW2zvrKIyaEED8UQjx+woOoS3NI1fkBZU6QRoDfxIzchQHCwoDDTdI59ePKOI57+n9dBjlEP64wscHZGEnQ8m6coqghWqx4RkWr1Xpct9sdunzYEP2t8tYfCCFQHi27yIjZ5zh3WRiGWaJvTwgNdPexdOajByk+ku+Qrutu63a7yJtbyMt13UuVUufC78PPMxxThMdLQvXARX4iFvSdBEEw75WJ9/A87660qlbfXEpOizwkJk/1KnJULxIDKaW2xXF8NhYkXMY530Mh5LHIQoibwjDMwt2IsJ4p9cuFcsPhEowG/5kRyoUyMRcwAqj4BSnlEcREHEeE7s+rW6Su43Pj3lgUKyBCra7TWmdGO4wNYwQ/FKmcnFZMPbsliiLEjS5qtj3Y4lSl1FXQmIgG+ZjjHL0AJ9oloUOKyT25M2ImhER0Yjyz6g0ErlmQ1Q3pTF9PkmSvPJAPiMwruNIhPFeT45wFyyp/jVLq3Qjsz6tbdFwBw5E2wDWqJEkQJQJE9l8sCG/0GwZgT7LE9kEJz8zesrsQ4j5CUTsmiiJUXNqgy3JVghjNSPKS2TkXnKbZ8N4Pnw52AZ66xGtyUIQNs3w9Y0EL4Rzpuu4XkexNGLTY/UELHrK1YGfiYXi8pbXucAhQ8AYVjSnAJYXb6kZa1c42+uyGF5I0UxFEs9J/NXW0PnWYni3AvYc6jvO/AE/A/D9EO2CpwO5+b5IkCH7HzyKrXFDVgcCHn93zmQL43/DJtY7jvC3Nxp/H7JGRWVZrDbW7Jx88xSu3WGO3fE0cx+/NGEkp9ZE4jl+Kv/ul8DATPQ6fC2uUKaE+kjgPU0rto5R6eBiGELZfCSGwMFmVwRp5duv5INSvP3Bd95FRFHlxHP/aFEBBOfVFVz37zch7pZSvIisybuI+QzJiGWvyx9Nygy8idfTfwjB8Mun2FDFCqRnktjCRAOcIIRYVQauerN70ap4o8Fop5bsJiS4PBJYbCLSEw2gnvDuOY5iiM8sXRYIXNeA4zjPDMFykzOh5muCmr/WnQA8OxCIxHIj1e2RCqLWOoJXmi32iEfyg7iC7DiQLUP3p0fSwocDMKfAEHE0sBBAdQ2D/LhBCxEsCwVQV+b14IKo5ZC5SVvTMZ6h54cJTYMV13e1wYVkIIoRwNwjhI1MrDRCjNC/3VPS3kdx5TMlZ+JlvBlgrCmQoaSXnQdoJD4QQAmX6h0mSaEgudkP4fHAuJAMNPjdCeW8cx03VpVrNd9OZulFAa31PFEW7F0VZFfT1aAjhvkKI/9BaO+Rk5GjSXJoNNP4L6jbopj8NBepEASnlNVrrky3xiZ4HIdzTdd07giDwuD+DSzEJJQKbgyBY1KIvdZrHpi/zTYFLpZTnWqijGOVxEEKAztwuhEAwadn1JiHEO8puar5vKLDJKfBGKeXbLYXwNBJCRDjA6ll2IRnzvWU3Nd83FNjkFHiNlPLvLIXwlRBCJCF+AXGAFoRDaNs/WdzX3NJQYDNT4CVSyo9aCuElEEIknaLSLNTSsusEIcSi4cqUjbn5vqHAsBQ4Xkr5aQshhJ/wXRBC5BLeJIRAJMygCw88XQhxy7A9au5vKLDJKHCElPIrFkIIdMO/gRCirBl2t4MthBApGiic2VwNBRoK9KfAU6SUX7UUwnfTTojChWW1ErATPnGYEsHNLDUU2KQUOFBKebuFECJm+woI4e+augA2OyGMOIuKlLVJ+aUZ9hQo8FgpJWq6lDWNfNRryTCDnRC4MWVnwqqQw7YKIVZQoTrNXEcpti3GpUJuFXz28BTTEufbRyRJ8ogUDwUJuK0oivY0teO/UkaR5vvaUQBpQR8TQtxt4FR+KaVEEvVv0sTy+4QQSCJ+wPQav/GzI836/625f3tFJdj2lFL+jMNm9qEsEic+BCEEEjCso/hdJoRV7IRnCSEut2UPqqlI95vVCJgvN9u20dxXGwo8U0r5+YFMWb7bVIF+brsTIkcwM8z8PspDGytpmRAeVEEuIeAVPzwmWywK9OCYZJi7xzFvnxqz1y9LefyqMdsY9nHbM+F6unO/EUIIwYKz/hEWb3qKEOJrFvdN8pYTJ1DL7ow0W2SR6ihOkr51bgvzdsWYHayiFqKtdRRC+HIIISrkYCfEuavsgosCoEazvI4XQvQKbYz4YgSdXzris81j1VEA8/ZXY74ewMXj8s+wXbD1E0IdfRmE8AjjrF+2eFOGk2hx3yRvOUoI0RfTxqaabgpJ+NY0H/LCSXaqaWv6FDDzdv6YbwLq96wxkWwjZmCYyQK40Uk46x8sqDD4enGqvsJaNcsL/su+2JWWQriZYRpnOVcTfRfVdhiz0cMG8c+Ybfd7/MVSyn+ydFGcCiF++fjMAAAgAElEQVSEA/7rKLxk0SHgjY5dr87iPfyW3zNYlkM+9tDtUsqbkySBhbS55ogCZt6OHLPLe1MdwDHbGebxV0sp32MhhHDWP4OE8Jue52kq8YW38QYIAMpxnDeGYTiujj7MYHAvdugO+sDq/W2ollTWoOk/2kEB0OaaDwq0pZTrFow8aDTwluOYtQEucAbDf6PneW83RYEGvQ6xo0fJdrv9mG63m2HM0N2UVZ9HX1NKvTOO4z+fwSD4K9AvoFs/jgpp4EvC9y/ri4Hyz1CthBC/LLu/+b42FMB8AYBsnAv1ApGYEI7TyLDPOo7zTtQe7Fe7nrUHITwUOyE6+W1AHq6srIgdO3b0qjERRgYBPSVJcm2SJDPHmNFaX+E4zhm86AgGYjHIbLxbtmzBuJAB0kTNDMtRFd3vOM7TwzD80pivh3vj5WO2Mcrj17bb7ZNyeL1F7UAIj4QQ7r+0tHR7p9NRVCIagE9UeTVX4gmIwTNHW3Mc5+IwDN9MOP5MPc5q5JVd5v7GV1hGqHp9f3oaxXXlmF26OMXUfcuYbQz9eFqL4l4p5e/wMuN9GoGG9lQIIYTqbs/zVF6HzdWYQzt4aOa4o1rrU6MougoLAgQKwKo2VlF0mO4DAlaSJKcMTdHmgUoo4DjONXEcn2zByIP6V1UxW1Tq6pVXH9BByNN+EMItnudtRzlkQlXjRhCOwGYaqwKB+xAp5Tf5IZ0VWixlEhNP+pskSQDhAd9Mc9WbAjCi3eM4ziNsNJ0BQ0Egym0zHioSDbZboG/TprYrhBADRvgMFYfJzoT9rFKe5x3o+35WjXRW19atWx+1ffv2+6n2HVXJtdkNSVhNqSqU8vr3WfW7ec/IFNhfKfW9MXdBvByZNLM2xu0vpezJR4l1FzvhwzLBE0L83HGcR2PQfOBUgz1XGq2SjAQpZcxTQyhbosyEzdWCdrt9dqfTed/IrNE8OBMKKKXOSpLk8rK5LelMJUcnx3GOoqplFoZDlKjfKxNCU5sdkQWFRSzQGIQTRHFd95wgCGZen1ApdWkcx+dyobLUu7O5MrvmJ1L15OSZcFLzknEogHn6Q5sGuNrHC3BGUQR+qQKo+rVpLmtWn5AWEZ5eZ2Qos2uYSJ4H6xMCxlAp9eL89g8mRwPcWtpqtbZ1u90qKvX2silohbFRR+leTBDOF2EYVnGmteGn5p4HKbBVKfXAqKooCWKaaFBJ+prrutuCIDibanyC/8B3+boU4F2t9cfCMHxxJoSu6746DMP3EBfQDlOkDriu+29BEPxBBRzzaNd1f04qM/pmI4RsF8y67LruGUEQNGlNFUygzSu11qdHUZS5JizUuaxJ7IZUW5OOTmEYArYF6t5Mr+Xl5a+ura0h5a/Hn+TuA7/CZ726ukp9em0KtPYe2gmRHbEBT5QspLStklHEVGoCzMSsQ4HQ8f+QUj4efVpaWhLr67An2V3MqIMM+yaO1I5sVdz1Ra31UeAzGyHktgFi9jQ9CJEySFaf9YVSEjsxZT4CDX3Gjr2+vo40vRtICGG637BqlOwylVgZlVIXJUlyHigLQbQ5E/JxQHARxZAkCaA8fjrrGWreN5gC7XZ7b9/37xxGFYWg4oLQ0lwrpS6O43jmTnrP8w7wff+74EvszvC7F5VHY4sFfPT3khB6UsoOrI/cQU8DhE5LujYY2fd9OM8/WgFTAQH8elvLKPWPH97NREGQL6mg/80rB1Pgza1W62IKT2TMWko34lsz11UhxZ/qOM5Ved8meM64yHqGT9Nf7JxdEkIM8jNa6+NIp8ZOk69XyA69SGeqwjiDTq+RT9P2TIiVCYPGLoi/ccVxXJVKXcpQm/SGtuM462BgLP6YWxtHPTceGrpVlTmBfl8eRRGAyXZSpbkgmn4iOR7HwAcd9Lgcx7k0iqJeTTXu5CYDDcWWaq3v8H1/v4qY5VLXdc+1DV3jgkoWKzOeKlC4KiLZXLwW87GNz5fNcSNjYrbTuK57WRAEb6hixEqpH8ZxvB/1u0hjYwvMZSlEY9ZPvhOeKKW8Dg1w/Ro3sd2D/12J9QmpH67rfoOiZsYkNh//mE01j49JAWQUZKGT4L+cP620aWbEqSKTHv3bQ2t9N7POZn3myQY0LnPMe14URf+aF8JeBjtfgXjpbPJ5mJ3zhDAMK6nQhOgZWkDGjKqoKsC3lKk20w1a69OiKPowP9cRw5bRge+cjuMkYRjOPMHA9PEEKeX1tIlBbviRjnZsaGMmUaJnHNywEziOE8dxLMlBzwdIf8PPAV292+1WkiZiBvwmrfUldGYtm6gB3wPZGajizVUhBRzHuStJkj3zGphNEHTOIPPmNJP+7VUMxfO8i33fx/s3nAf5+TZnw+jJXl4d+0Bquj8TDRXVrC8YXFXq3L6e5+FcOgl6n5Nm3c88DG8SHV+QNkD/v6VjD3dP2J4JDa9maUFCiB9XRJeeOk0BJaSKcpUU30kpr4iiqJdsnBeiDHKeTMPcWWrCbLJDMM5jZuBVgOgQjb+gtX7GBHZDTB5qWPyiosnbzK/dTSmFmhIZH5IA2gofEc7wKQCsn1URMfdxXfcn3FjIg0lYoAh1b4NRMC+Ej8FKko9UoJxC/rn5rMpsdcBVjAt/QAgC15iiMRXN4eZ8rUm0PpnUNKif4DH4CbHI49hj47g3rjOgsn25IkpmKAD9EB/4jmjAyvYVQvyE+lqkTv6Mn5NoVeKOU/IX1iBb/dYUIn/sOFZz9niygX6saB433Wthxfw68Rdf4Lkx0Mbw5rrurUEQAMS6kstxnGvDMDwp77MsOtO6rntXEAQwgvauIiF8p9b6DQQvSKsUEYmfFQ0Bq8xKmETBEAp3qiresBLGqfqlUsosDhg7HS3wHMWhKNyrqM+GByvJmDD9QfmIB3i6H8lM/reRIZRj2JBitZMQOo5zHFwPQ+jlVZv5Y9d1JfoLNcYm6LcfA5qIh1dVzaCL/n6TDodzkdUFZmam/ewZtstUkrzLOn5qWdUnOh9iDEmS7OTaK9oJtziOsz0Mw14caQmlbkpr/x1rRc0p3EQgUDQxeetaWegTRQbheRMR9Pwoiq6bQlebJh8038NJ/akiwSoiED8G8dxQBidY9SYA/j+63+TSYmE2tQzOIl+4tNDFIKX8uFLqlCEsjwBqvb8iLnM8z/sv3/dRnbd3kLeNK6U+434iVJIkjbV0OpMJPrnPcRyZd2QPeh1ZF7Gg0hnRpNr9Oo5jzFWWpj7ra2VlZbfV1dWBAMVcJfU87+put/vCfD/7+fk2hLANGpxZnaq0kqJ7xyulPo1dkJ8lbKPwaYVlQny7EAKGg0omd9bMNKP3ucvLy99YW1tDPcxswaOgkGHeT3NkfleVLUFdtqqfSO69MAwLz679hDBDYEPojI11ynGcu8MwrDTyBDiVYRj28GNsBZAzAFQHmuQoihqc0mGko+TeVqt1TbfbPXkIW0PWIjGwcXL36pFora+NomjmaPB8mKYu/UC+h7EJQSVGjgozd/pGvKysrFyzurpaCorEiHqAqRkxwakbqqk9Wq3WXTjLMkGyaoAnhvIHtNbboiiqImXLqt/zctPKysq21dXVzBADoQJj4kxns1AWHStarVbS7XbB/P9ZIQ1QPgIa08CLeRf6LhqDws5OdF33OptsBWNa7qVmlHVsit+/iSfr2qy6y8vLYm0NKYoiYw5KKCWDTZro/Nb0u6bA6IiTltLxwjiOL8jPxTBWbALpYufIymJEiQxbtmy5bMeOHa8vIwtLs+rrRhkkhFuMFac0PtQQtNDyU9bJCX+fITcrpR4x7HmDhxkVoI438aWjTdQ5UsosLpSONRz0iDIOhmlaSvnrJEmQRlcFxhF1FSjbD+RSAQuHwXbyvv70MgF7JyUecmckV99yoTpVG2hAiJ2gEfEhj8Igatmcd9mhutkRh5AW7IBJklxgQ+NBzeZM/NBWTux2u9cP0ZVp3HoGgrBpcaHkXfq/QM0eqCWWCeETHMcBHLmkgzFn4NyhE19VUrWpgMqISsiAgmm15cyQS3+xmiST2NyU3bagVrvd3tbpdM4e1k3Ur2mWm1eHIw/OtfeYuiZ5zJjeENjiDYs9AKBQY7N4t7Sg6S1Syqfm0c0KzPrUVNVm46wfnFA9HYLVX7QxCtBzuNdAPYLosMK+tHFfFHIO3BAfXVtby6yWBWq9BbttvIXNU10W+AxszPDYBgQACF4OVxTGp9K41rKdEO86XSl1JUWi5DKZs0h3CCR2CmPEQRUcVMOp+nosMD+AIEcB51hISL0ZJjaRdlEyLkgpb4/jGFESTfrTQ7O8m+d5n/V9/6BhFjhLJoG94XFCiDss75/mbd9MA7YP4cEGA3BFIRtnRFE0EGzaRghROzxDOCOgJ7L45C2nJooBUStV4Xzkif+StAhqBs1YxBjjMIvWOomi6PlpkccMJ2QzXwhFi+P4X7Dg8UUalZ8Z2vRIJDIaF+Izq4DY3NDn5eXlQ9fW1r6BD2lBLsEVtUJ+sxFCvPMvqeIpvZxKaONL7JK53bDSeFJOOa31B7TWZ8JhyvO6qMCNDWeQsNIuysGIkASdnoU3bdC38aVuCMYeJhfQgv5Vlbwu6tqNnucdQ4gOxE/MDbFB04rj+KIwDP+ibIy2Qrh3u93+SbfbzXbDfJIv9/ngbzBtp9M5PK2sk60aFV+uUWOyyAbm/7PqVl4A8RDDXyW4vR8ArCgIgjqM12pc497kuu7hAGeK4/jxLO6254qwVfdL+nGXEOKxdTh/u657GKqXQQDBQ+BzrglyQWRjQpL8nWW0thVCtJPhzxTlFeLLghyqW5MkqSzRMjfwra7rfjeKor14+JOt9Y6rrdzYwH1e5tx4tdkVF/msuFtay/LyMAz7hoxxbaksi2UAg0IAEZWyvYyJZ/T9LVl9eSk3BJHnNSrIB+4Jw9B6Bx9GCA/QWoORszFb7iiVFBTtMylw8N6N3EOsYPmIjXH8iLxClFIq0Vq/LggCFCNdpABwF8U74zj+W6VUFho4hoD1pogzNeMpnKWqDkvjbHSU4zhfJACnomRdnkJnFmQsIFYVrYcRQjDuZ+I4Pg6dsMH+EEJgNduQyj+jVavfa/bHQqK1lqTX58532XOj+BEL1BHAKb5RCPGRisc8idejxsI7oija07YQzzAvzS2IEMAnCiG+O0wbU763B/mS33yKcGVc170xCIIM4t7mGkoI02KiCNK+HSshhNAmNtPGRGvT0QneAxX5yzDj5RcTWPN27NgxNPoznYl4OS8IMmgUhiGY6nXpyv7+ikOthiUh6n68QgjxNzht5DWHCZ35eoYMyuV0HOfIMAy/Mmxnp3U/6lkiOmaQYY/kADQCXdbX15GuZb2IDCuEGGuvcIyNECJssCibeFpEs2z3uYD8J5P6OH7EMtcHY97EcZzzwjD8WIXYmDbkeazjOC8Kw/BiogsXOJyJsbjYBPbbvIzugRofxzGCnKsOSePdBn7Mb7EIDZrnnBz0Cr3Yjn8UITwEtbZ59sGgl5nOIwsBsZd1urIdkYJwy4RpUMfz6it2Ri7Y3KcE5k2S5OZ2u/0PnU4HMBp1MOLsBl9fmhr0yrRo5ZEE8sXHXLTzDZMJ0Y9+hu5YqAFZWJsd0PT3rWnJhfMHLdIUN8oC1A8LguCbwzD6KEKI9j8OnE6bsCRziAWRn2STfzVM5ydw7/6O46CoY3ZGHNePWBS2RId4bknFOZTtJJ8VQgD39HNCCJw9ZmENxAqPs/pzXNc9JUmS51DkE4ei50H7oDX/n7tpxpyHOp4BMaSDUoiXbyNumsbX77jCfOSwju8EX1FGn5GEsN1u79vpdH5kk8qBDhjLIxIgceCu24XCHFiBUa3Y1urbG0O/MDgK4KUVkuP1YGek82hBOs8nlpeX/3VtbQ2WNUC6/3LMsyTOdo8yc4YzPbJMTkKMI86//OLZMTy1ywSv94xxRb7TESf13na7/bROp1PqSxux/ZEfcxznO+nR4SAbwx1DfgMM/9ChdSMJoWHWv1RKvcXWTG1C2l4VxzEiTOp2jeVHzKey5EFfSR3FbyqjzM8RLNxvg+uEReh8LY5jxKve53ner33f/43JZ/sVdk7HcbaGYfhI13V3CYLg4UKIhyuldk+S5CAp5ZO5JZurlWTRxWTwe3j/89Y/S9eUzfzWzQ/Y67NS6uw0S2Ibz7zp58Ji9Lk4DMORSnSPLIQIHEHVXJgY0REujJhoc/bZwFQPQtYkdfL/cGaBH+xyhLhxowMPTeI18yZxHrLh1Lrfw4Wal1pHv7n/lNPLdd0rgyBA3ZM6+lH3gGstM52bMeQNU0BfyEExIo54eVSNZRwhRB8zDH78QWeEHLEz4SRMEWPKvyGKouNrzFwvbbfbqDsuaWHJq250zrMp3VXjcU6sa9w4QXYCbrYnVdwswsAJrTwYu9/g2+32jZ1O55i8Q75IO8AYIYzdbnesZPZxhRBnqJ9JKfdihO75fvh2ngsRqztcBOIVYSjZK3/mo0VmnAyMiXF/DRqi8y2lslFcJeVfoovGcIEaDM8Z5cw0w2FmZdryUTx0hMACg3FhcWb3jB2QMrYQCiEOUUp9A1akfn5DOkfgsA9QJYOWVUdr6Yb5Ts9YlwZBcG6R4GFicNmeiWfISJW9ijMpOkFBDFLKy8IwrKSO/BDEgIP927CUm91tQzAK520yVJmz9NiJCpMQQnT20jiOz+UHfR6N0ifUCSvI40fVo4cg7ri3QnVG6FkP4Zssn40AbqxKywltcgl/ncJgAoXghnEnYcrPt1ut1g8MjGL2Ktrp8htLThgvi+N47MVlIkKInNlWq9VFqhMnVr+BsKiLbSks+jzgeraVUq+L4/gSCgC3zcCYMvPUonluB2B+4fNMyFuVqGhW9DGFgM6is22Rc54LpsmUSMIwBLrf2MalSQkh+oiAVYS0ZasI1DUAvNLKweMr6TNziN9QtdSKatXdBIDhv/Z9/4WEMjBEvY7qej2DN5OPUWt9je/7iJWtEph3mBGD/7bxhSRvcOOaD4uOOj4Mw4ns8JMUQgjc++M4zmpx53cKMmSQADLDRpIWyniS7/ulaMbDUHbK9x6ptf6/URQ9YsrvqX3zzAeK4ix/mFbourn2nX6og4iK+Y452/U2D3JRsUiYHhy/OYJY5wra0GKiQiiEWFFKPYDAaFu8Saa+7FQyymYAFd6DjP1TlFJXwafEw734Spo3dXOrKj9fVGlt5doK+fZAV5rDfNwo7RrG4Abf78tMKOPYqtkM57MXnG37zmnx6qSFEOM52HGcb5IgluUdkuVUa31LGIbPnISObUvUCd6HULALkHmNNjmTYvxbt24V27c/FBLKtQSbsKgJ9nOnpggriOaJCyQFXVA1XTzMdomvRlGEoPx5rOWIBfQLacaGFfID8Sj8nKkGdPiwAdpl8zcNIcQ7wZBD12/QWl8dRdHQAbBlg5zV90tLS09fX1+/WAjxjLxVjc7KFCht8s42dI0HCM86EICfifjOlze6eJ53c7fbRS0IZKDM63W14zgvGMa6bWgylWygaQkhJifDZ7QZaA44ahHg5vdFkLSU8p3QCLjDH/TIawfwn8KIxY09k0qaLZMSUoOL1GGaF8dxsAP8Wbfb/WTNne1lw8X3EKQLbOnLFqGp4elOUwizqqy2mRZEPUx4GIaAEARGy9xfruseGkXRi5MkOQ8CiQERc5cVNLVllHGJRBkTpHaxVCvs6v9cE9S8cYcJw+HZcRxvy5+Byxo2wSVTq948TSHE2J5urGV938MTYgm5Cid9IUStYwzLJq7gewS8I7oCgMEnGaiQ7PyIH+Qz8uInIIGtcWuEvuz0iFGXvxeGIXa7TwkhvjYHgRTDDP1UrfWHyYiGB4eg71GpC+5Lw7xsmHunLYToC8CO3j6oU0WOb9d1kyAIngvf4zADmqN7gf6GUKlnE7Ay+j7BVCErUiilLo7j+P+lyagw1f/c6qE5u8lxHPj0rgfAF/frWp67p14LcRZCiCkDrkqhwYVC3WhV4ulCBp8GBTgm4hStOe9Afd9TCPH75mdvpdThcRwjxnbc69tCiK+bzP3/EEL8O+AfawKtMe7Yyp5H2OH1BE425EIHBIkXlb1g3O9nJYRQxZC9fgjtekPk40E13SyCWDSfoN0jkaiL+FX4YuEFMeBZuB/FJ1GwEhdAiQAMuyqEQOIvfsbNzB+Xxyp7nnbAMrtEPsEau6XjOLeFYfi0WajksxJCTMRWz/N+GwRB5sjvl3FRNGOe5yW+729mQayMkef4xdkOWCaAtDPCHsEwk2aKEDhLIcR4Ybr/UavVkshOttTJMz7AGVFKeZrv+7VNCJ1jhl20rp/qed6Hfd+35m+mmUEAgRUDfJ+ZXNadnFRvlpaWnra+vg5L04YyWv3az4WAwXC6MO6LSdG0aechCriue1YQBEPjGIHPwFxRFKF0w9QsoUVzNXMhNJ14idb6I5BCG2d+bsdEwPfbUpP+0BE5DbMuPAUyRzwDyCpNus6FGFZSB7EqIYRv7I9NBdOBfeBYJQRKa4w7wHgE0eYpaHjhpaCiAbpSShxTXsCTyYfsy1g4MUO+a8PtlQmh6cVrhBB/VzYA7jujgGc8Y4K+cQCfBWBuWTeb7yugwK677rr1/vvvhy95QzA2wvA4zk2/rplFvlLMo6qFELQZGOydzziA+srDuUwNAzi9rcpQVcAnzSunR4EMF4bsCxCoEZKspxKUPcyQ6yCEGwQxnwZkMxikmDiOc3YQBH9vc39zz/xTwAD0vpficfuNKO+P5vCM6TOVCyD6XRchRF+gmr6bQotGqHUA0zKsYufOwsE6/2w8tyNoLy8vv2ttbQ2wFFYXIZzjZspgWVlZOWd1dbX0KGT1gjFvqpMQYih/LIT44JD1DzMVBI5WGG583weKG5JsrevDjUnD5vHZUQCw/te5rrsXAt5tChJR1/ixpt1un9HpdD44u24PflPdhBDnvZf4vg+IQSs/Yn54BEHQarVe1+12a7HS1WWy57wfrwUwL2lvwwR6QFghtHXNzqmdEBpGefrS0tLN6+vrVv3bZZddxAMPPBg+yUuQIfA7SZIz5wj5a87lZCrdR20IlFo4llD88BbAbNjEH+ciYWbuiLehiBWT2zQ0hXuyELeyc+sAZGQSSqRENVE2U5igaTeJ6JcwDJGEm6Ug8d1vGGAsE3s801C0YWhTZyHEOICIBUAeVAcuvEgI84BFuBmrICUKmwKlcO43Z8VhOKSaew80qOdwQWTXoAItg7qolLotjmMAiNXWl1x3IQR9kcrzj4AXLBNEfF+UncGAhxOl1NviOH5nnSelGr6vxVux6P4ZfMdc1aS/aSccYhdEVNUf1d1aPg9CSNzxJiHEJRwikCaDW8ks4wbhzsBZsTYWslqIQIWd0FqfniTJFSgsxHc9dInXOaQ5z58Had7Z51PPiJ8UueZJCDHmDLPGcRwJNRM/fHXEDUUFPgcQ6y7HcV4WhuE8oUZPau7r0g7wWz6MMnSkyeTxdXh9yPwuSPD7LFIGC2wtDTD9CD5vQohx7GrgLg6hVY9H2VAtuSGRym5JoR5gAv9GXThzE/TjUK31e6SUR+AIARcCn086y/MAfhI0zC3+poB+ii32PO+2breLWOJfzBP95lEIM/qm0IgXhGGIuNOsXDcibHbs2NGj/ZCZ+2AChL7dFIYh1JhGGKfHxYcKId4hhDiGv6LonMeDsHNFhHqPQiANluvc4tXOrRCaWegVKKVZGVRdp4ivuHUVk4md1HXd29bX11Ha69PT48XN1bLBe7mELN0QMMolLSpFxjUZ+pvmNldcKHFdd+LQ9LOcnXkXQtBqq1LqXVQNahTiFYHBms/uTS1rEEZY2Wpr4h5lzDN6BtZOWLUvVkrtzpHHiyJeeBmAfBWvIlhMpRQMOX8673OzCEJI/HSc1ho7106O3TKG47snt7TSxC8tLSXr6+uXCSE+0PgZy6iZfX+gUup/xHH8epg68yC7DF4/u5nOd9QyB4TmyAvMCJO0Wq0Tut3uQkBhLpIQYg5dA2aLTArrsZFTHw1whuGFTU2NemCQ3J1Ckfwvg1J9vxVLbo6bgJv6vPS4/r89z9sThhZcRXCC+Lyfi4FSjfJzwYxvKFGNc/vCICpYM+qc8dEhrut+MgiCzOxNAMNQh7haA5UHn/GQqCERsG9MTevvNwK5GdVVqJsQvLPSyKaj+/FIXrCKVNGiONDcXN2VliRD+YBvzhkvlnZ3UYUwG7jW+k8Q/JvW0es5gCFkUHdQBYkufIaLzix0HrGJ1Geq0zVhGH7ChNn9pJTy83vDPlrrZ0VRdLLW+uSyTHZekYp2R1oYIXjknuCqKFRQVqwUFaHOCILgQ/NLssE9X2ghNENH2Nv5ruueB+BhIgcxAE04qUjknxo2qThnOIDDGBWNPr8ANR6QxXBQu91+dqfTgRrYo6GtL5ZntsDxvroKgPCNF1lLc2UQLko12rfVPexs3MVhMwgh0Whfx3HeEccxSlzvBIVXxFA2qTJonO+cVDabV75NkeXuCIIAqiuE8lsGWPahrXjcWZzc81iw9tVaHxxF0bM8zzsu3YH2LUJMH2aRyhtasGBxtwRlvhPNHMe5OgxDhCneMbmh1belzSSENAtwFqNK1LFcBSJVCZY7MAMPfxs0ff2yu2Fu5yt+wX23mvPN7WnV2G+FYQgjz3/OyNyOsxyKzzxKKXVwHMcHwdcWhuFTyDBVVDOEO9SLynwX0amfE57Tl9HmpuXl5Teura0t3LlvEA9tRiHM6OF53gFBEPx1kiSZMOZ3PVtVi57Fbwqj4s5lfE7nJjp7ksrFaxIaZoUai77dF0XRLY7j/KTb7cJXCf0NhV1Q4AXZyyj6siaEWDeqGnawpXRxWYZB0hSLeRhC/BzHWQnD8HeWlpb2XV9fBywgil1m847+UJgfZxJ8TsYU9B3/Q1DW19ez+ylu13Zv4VZmojNohHaMC+JGz/Ne7/v+pkwz26/LFgsAAAMASURBVLRCyHbB/cMw/HOt9ZlhGA5drKYfI3KjDq30eYczme+3bt0qtm9/0Lha5JRm78iEtOSyAlPmOzXeiUUAiwIJIF84igqWDpFO1BtXATDvFWmVqb/a7HCVm14IGUP/nlLqVXEcn4dM7qJzYxHzk9Bw40Pe19jP98jb47vFMHGvZRLJE5vzVmD+Tq4NFL2fh4xx62VZtdt8Mi7aVkpdFIYhkPF+Wtb/zfB9I4Q7z3Lbdd2XBEHw2hTZ6w+KYNWLGIuHZNGORr/xXZGQlux6M+M/Gz8ex+vMgS/3XDt5tT6XmPtVIcR7oigCXH0djVIzo3f+RY0QDib9E1JjySuBZbq0tJQVr4FBoeiMwwPB0SQPtyIVj9wfI2SIT41Byvx4/PyHhQRXHl6eAhxI6AjdzCxMl3me9/e+739/aoOY84YbIbSbQFgTjxRCnO153klU9452t35GHO77yu8Sw5j47bo4+l02fjxqnef3kUOdjDdG6HBu/USr1Xpft9v9ojEqjd65TfBkI4TDTzIskc9Oa76/InXEv5AYmOe+5WoqZlbTIkGd5Nlv+GE89ESZH48WEOx0ZLyBwHHrqvHt/YMQ4nONujncbDRCOBy98ndjhzzCcZznhmH4UqXUHvxsSGc+LoAMKXy8N0/oaRs/Hj/b0cKxvLx899ra2j+bktRfmZF/c0KjrlczjRBOdj4eo7U+NoqiI7TWL+dxlXk/JEOFnmwPRmitzI9HgqeUQirXrXEcI/pnZuWkRxjSXD3SCOF0p2tvrfUBSZIg1/FJYRgew5HD6qKOggQ808SQ5CYT93pDu93+XqfTuXO6pNq8rTdCONu5x3nykQiIVko9Lo5jpP8AaXx3E8nCezPJuenn5L9XSnlvkiTY1T6bYnT+0CQt/6o5182OMSY50bPr9eK9SZuQM/gAkByL0DKEoYVGQIEw9ySt9aOEELukQElboijC3/s8mLieQMhQMuA+nM2UUqtxHEOQAFj1X67r3hMEgSeE6JrwN4TAoe3GX1cDXvr/9DB2ltdJioIAAAAASUVORK5CYII=;" vertex="1" parent="1">
          <mxGeometry x="-193" y="295" width="65" height="64" as="geometry" />
        </mxCell>
        <mxCell id="0RuG0_nQVEGUd9mbJf9A-31" value="&lt;b&gt;Query&lt;/b&gt;" style="endArrow=classic;html=1;rounded=0;exitX=1;exitY=0.5;exitDx=0;exitDy=0;entryX=0;entryY=0.5;entryDx=0;entryDy=0;" edge="1" parent="1" source="0RuG0_nQVEGUd9mbJf9A-29" target="0RuG0_nQVEGUd9mbJf9A-23">
          <mxGeometry x="-0.1877" y="17" width="50" height="50" relative="1" as="geometry">
            <mxPoint x="20" y="360" as="sourcePoint" />
            <mxPoint x="70" y="310" as="targetPoint" />
            <mxPoint as="offset" />
          </mxGeometry>
        </mxCell>
        <mxCell id="0RuG0_nQVEGUd9mbJf9A-32" value="" style="endArrow=classic;html=1;rounded=0;entryX=0.5;entryY=1;entryDx=0;entryDy=0;" edge="1" parent="1" target="0RuG0_nQVEGUd9mbJf9A-29">
          <mxGeometry width="50" height="50" relative="1" as="geometry">
            <mxPoint x="60" y="515" as="sourcePoint" />
            <mxPoint x="-160" y="390" as="targetPoint" />
            <Array as="points">
              <mxPoint x="-160" y="515" />
            </Array>
          </mxGeometry>
        </mxCell>
        <mxCell id="0RuG0_nQVEGUd9mbJf9A-33" value="&lt;b&gt;Cached Response&lt;/b&gt;" style="endArrow=classic;html=1;rounded=0;entryX=0.5;entryY=0;entryDx=0;entryDy=0;dashed=1;" edge="1" parent="1" target="0RuG0_nQVEGUd9mbJf9A-29">
          <mxGeometry x="-0.1273" y="-20" width="50" height="50" relative="1" as="geometry">
            <mxPoint x="60" y="240" as="sourcePoint" />
            <mxPoint x="240" y="320" as="targetPoint" />
            <Array as="points">
              <mxPoint x="-160" y="240" />
            </Array>
            <mxPoint as="offset" />
          </mxGeometry>
        </mxCell>
        <mxCell id="0RuG0_nQVEGUd9mbJf9A-36" value="&lt;b&gt;Orchestration&lt;/b&gt;" style="rounded=0;whiteSpace=wrap;html=1;" vertex="1" parent="1">
          <mxGeometry x="-210" width="1200" height="55" as="geometry" />
        </mxCell>
        <mxCell id="0RuG0_nQVEGUd9mbJf9A-37" value="&lt;b&gt;Logging, Monitoring and Analytics&lt;/b&gt;" style="rounded=0;whiteSpace=wrap;html=1;" vertex="1" parent="1">
          <mxGeometry x="-209" y="610" width="1199" height="55" as="geometry" />
        </mxCell>
      </root>
    </mxGraphModel>
  </diagram>
</mxfile>
